<svg width="42" height="42" viewBox="0 0 42 42" fill="none" xmlns="http://www.w3.org/2000/svg">
<g id="svgexport-17 (78) 1">
<g id="Group">
<path id="Vector" d="M21.011 5.44368C12.4326 5.44368 5.45344 12.4222 5.45344 21C5.45344 23.4505 6.03833 25.8746 7.14714 28.053L4.62099 33.2702C4.33757 33.8535 4.395 34.469 4.77455 34.9165C5.04969 35.241 5.43942 35.4129 5.86951 35.4129C6.03267 35.4129 6.20173 35.388 6.37244 35.3376L11.9986 33.6772C14.6414 35.563 17.7436 36.5564 21.011 36.5564C29.5888 36.5564 36.5674 29.578 36.5674 21.0001C36.5673 12.4222 29.5888 5.44368 21.011 5.44368ZM21.011 34.0954C18.0808 34.0954 15.3085 33.1465 12.9938 31.3509C12.6856 31.1096 12.2656 31.034 11.8912 31.1429L7.8006 32.3502L9.62703 28.5782C9.80857 28.2151 9.7956 27.7768 9.59881 27.4228C8.4968 25.4677 7.91438 23.2468 7.91438 21C7.91438 13.7792 13.7895 7.90461 21.011 7.90461C28.2318 7.90461 34.1065 13.7791 34.1065 21C34.1064 28.2208 28.2318 34.0954 21.011 34.0954Z" fill="black"/>
<path id="Vector_2" d="M15.0183 19.5275C14.2045 19.5275 13.5449 20.1854 13.5449 21C13.5449 21.8131 14.2045 22.4725 15.0183 22.4725C15.8316 22.4725 16.4908 21.8131 16.4908 21C16.4908 20.1853 15.8316 19.5275 15.0183 19.5275ZM26.9824 19.5275C26.1685 19.5275 25.509 20.1854 25.509 21C25.509 21.8131 26.1685 22.4725 26.9824 22.4725C27.7956 22.4725 28.4549 21.8131 28.4549 21C28.4549 20.1853 27.7956 19.5275 26.9824 19.5275ZM21.0003 19.5275C20.1864 19.5275 19.527 20.1854 19.527 21C19.527 21.8131 20.1864 22.4725 21.0003 22.4725C21.8136 22.4725 22.4729 21.8131 22.4729 21C22.4729 20.1853 21.8136 19.5275 21.0003 19.5275Z" fill="black"/>
</g>
</g>
</svg>
