<svg width="24" height="24" viewBox="0 0 24 24" fill="none" xmlns="http://www.w3.org/2000/svg">
<g id="svgexport-21 (14) 1">
<g id="Group">
<path id="Vector" d="M12.0182 1C8.41821 1 5.4873 3.93455 5.4873 7.53091C5.4873 10.4873 9.88367 17.3382 11.4655 19.7055C11.5265 19.7977 11.6094 19.8734 11.7068 19.9258C11.8042 19.9782 11.9131 20.0056 12.0237 20.0056C12.1343 20.0056 12.2431 19.9782 12.3406 19.9258C12.438 19.8734 12.5209 19.7977 12.5818 19.7055C14.1637 17.3345 18.56 10.4873 18.56 7.53091C18.5528 3.93455 15.6364 1 12.0182 1ZM12.0182 10.0836C10.6146 10.0836 9.46549 8.94182 9.46549 7.53091C9.46549 6.12727 10.6146 4.98545 12.0182 4.98545C13.4328 4.98545 14.5709 6.12727 14.5709 7.53091C14.5714 7.86627 14.5057 8.19843 14.3776 8.50836C14.2495 8.81829 14.0615 9.09989 13.8243 9.33703C13.5872 9.57417 13.3056 9.76218 12.9957 9.8903C12.6857 10.0184 12.3536 10.0841 12.0182 10.0836Z" fill="#EBCD1E"/>
<path id="Vector_2" d="M12.018 20.2764C11.8634 20.2759 11.7113 20.2375 11.575 20.1646C11.4387 20.0917 11.3224 19.9865 11.2362 19.8582C9.42526 17.1455 5.21436 10.5127 5.21436 7.53456C5.21436 3.78547 8.26526 0.734558 12.0144 0.734558C15.7634 0.734558 18.8144 3.78547 18.8144 7.53456C18.8144 10.5127 14.6034 17.1455 12.7925 19.8582C12.6216 20.12 12.3307 20.2764 12.018 20.2764ZM12.018 1.26547C8.56345 1.26547 5.7489 4.07638 5.7489 7.53456C5.7489 10.4473 10.2871 17.4764 11.6798 19.5636C11.7562 19.68 11.8798 19.7455 12.018 19.7455C12.1562 19.7455 12.2798 19.68 12.3562 19.5636C13.7489 17.4764 18.2871 10.4473 18.2871 7.53456C18.2834 4.07638 15.4725 1.26547 12.018 1.26547Z" fill="#010101"/>
<path id="Vector_3" d="M12.0181 10.3527C10.4654 10.3527 9.19993 9.08728 9.19993 7.53455C9.19993 5.98182 10.4654 4.71637 12.0181 4.71637C13.5708 4.71637 14.8363 5.98182 14.8363 7.53455C14.8363 9.08728 13.5708 10.3527 12.0181 10.3527ZM12.0181 5.24728C10.7563 5.24728 9.73084 6.27273 9.73084 7.53455C9.73084 8.79273 10.7563 9.81819 12.0181 9.81819C12.6235 9.81723 13.2038 9.57632 13.6318 9.14826C14.0599 8.72021 14.3008 8.13991 14.3017 7.53455C14.3017 6.27273 13.2763 5.24728 12.0181 5.24728ZM11.9999 22.0509C9.34175 22.0509 7.33447 21.1746 7.33447 20.0109C7.33447 19.3746 7.9272 18.8109 9.00356 18.4291C9.06978 18.4064 9.14226 18.4106 9.20541 18.4408C9.26855 18.471 9.3173 18.5248 9.34115 18.5906C9.36499 18.6564 9.36203 18.729 9.33289 18.7926C9.30376 18.8563 9.25078 18.906 9.18538 18.9309C8.36356 19.2255 7.87265 19.6291 7.87265 20.0109C7.87265 20.7236 9.57084 21.52 12.0072 21.52C14.4436 21.52 16.1381 20.7236 16.1381 20.0109C16.1381 19.6291 15.6581 19.2291 14.8508 18.9418C14.7854 18.9169 14.7325 18.8672 14.7033 18.8036C14.6742 18.7399 14.6712 18.6674 14.6951 18.6015C14.7189 18.5357 14.7677 18.4819 14.8308 18.4517C14.894 18.4215 14.9664 18.4173 15.0327 18.44C16.0908 18.8218 16.6727 19.3782 16.6727 20.0109C16.6654 21.1709 14.6581 22.0509 11.9999 22.0509Z" fill="#010101"/>
<path id="Vector_4" d="M11.9998 23.2655C7.69437 23.2655 4.31982 21.8327 4.31982 20.0073C4.31982 18.7927 5.78892 17.7273 8.2471 17.1527C8.38892 17.1164 8.53437 17.2073 8.5671 17.3527C8.59982 17.4946 8.51255 17.64 8.3671 17.6727C6.23255 18.1709 4.85073 19.0873 4.85073 20.0073C4.85073 21.3236 7.72346 22.7346 11.9962 22.7346C16.2689 22.7346 19.1416 21.3236 19.1416 20.0073C19.1416 19.0909 17.7744 18.1746 15.658 17.68C15.5162 17.6473 15.4253 17.5018 15.458 17.36C15.4907 17.2182 15.6362 17.1273 15.778 17.16C18.218 17.7346 19.6726 18.7964 19.6726 20.0073C19.6798 21.8364 16.3053 23.2655 11.9998 23.2655Z" fill="#010101"/>
</g>
</g>
</svg>
